<svg xmlns="http://www.w3.org/2000/svg" width="26.651" height="22.696" viewBox="0 0 26.651 22.696">
  <g id="cut-scissor-icon" transform="translate(0.942 22.202) rotate(-90)" opacity="0.54">
    <path id="Path_5166" data-name="Path 5166" d="M17.634,5.646c1.061-2.267,1.042-4.14.021-5.646l-6.35,11.019,1.578,2.8,4.751-8.172Zm-13.561,0C3.012,3.379,3.031,1.506,4.053,0l7.683,13.333a2.653,2.653,0,0,1,.607,1.481,3.638,3.638,0,0,1-.195,1.106,1.481,1.481,0,0,0,.211,1.108l.32.351c.287.314.533.691,1.02.63.324-.041.6-.316.833-.757a3.165,3.165,0,0,1,1.065-.776,3.664,3.664,0,0,1,1.329-.3,4.566,4.566,0,0,1,3.894,2.546,4.6,4.6,0,0,1,.174,5.166,3.029,3.029,0,0,1-2.5,1.319,4.578,4.578,0,0,1-3.566-1.791,14.979,14.979,0,0,1-1.576-2.448L11.5,18.6l-.217-.554L4.073,5.646ZM10.9,13.91a.734.734,0,1,1-.734.734.734.734,0,0,1,.734-.734Zm4.565,4.561a1.79,1.79,0,0,1,2.246-.589,3.529,3.529,0,0,1,1.75,1.5,4.4,4.4,0,0,1,.654,2.567c-.16,1.734-1.7,2.062-3.049,1.3a3.5,3.5,0,0,1-1.42-1.512,4.982,4.982,0,0,1-.5-1.547,2.483,2.483,0,0,1,.32-1.725ZM9.555,16.534a1.526,1.526,0,0,1-.207.492l-.32.351c-.287.314-.533.691-1.02.63-.324-.041-.6-.316-.833-.757a3.165,3.165,0,0,0-1.065-.776,3.664,3.664,0,0,0-1.329-.3A4.566,4.566,0,0,0,.887,18.723a4.6,4.6,0,0,0-.174,5.166,3.029,3.029,0,0,0,2.5,1.319,4.578,4.578,0,0,0,3.566-1.791,14.979,14.979,0,0,0,1.576-2.448l2.181-2.786-.072-.123-.023-.037-.882-1.489ZM6.246,18.471A1.79,1.79,0,0,0,4,17.882a3.529,3.529,0,0,0-1.75,1.5A4.382,4.382,0,0,0,1.6,21.952c.16,1.734,1.7,2.062,3.049,1.3a3.5,3.5,0,0,0,1.42-1.512,4.982,4.982,0,0,0,.5-1.547,2.51,2.51,0,0,0-.322-1.727Z" transform="translate(0)" fill="#707070" stroke="#707070" stroke-width="1" fill-rule="evenodd"/>
  </g>
</svg>
